<?xml version="1.0" encoding="utf-8"?>
<!-- Generator: Adobe Illustrator 26.0.3, SVG Export Plug-In . SVG Version: 6.00 Build 0)  -->
<svg version="1.1" id="Layer_1" xmlns="http://www.w3.org/2000/svg" xmlns:xlink="http://www.w3.org/1999/xlink" x="0px" y="0px"
	 viewBox="0 0 45 45" style="enable-background:new 0 0 45 45;" xml:space="preserve">
<style type="text/css">
	.st0{fill:#D99689;}
	.st1{fill:#FFFFFF;}
</style>
<path class="st0" d="M17.7,44.4V25.3h-7v-7.9h7v-6.1c0-6.9,4.1-10.6,10.3-10.6c2.1,0,4.1,0.2,6.1,0.5v6.7h-3.5
	c-2.1-0.3-4.2,1.1-4.5,3.3c0,0,0,0.1,0,0.1c0,0.3,0,0.7,0,1v5.1h7.5l-1.2,7.9h-6.3v19.1L17.7,44.4z"/>
<path class="st1" d="M17.7,44.4V25.3h-7v-7.9h7v-6.1c0-6.9,4.1-10.6,10.3-10.6c2.1,0,4.1,0.2,6.1,0.5v6.7h-3.5
	c-2.1-0.3-4.2,1.1-4.5,3.3c0,0,0,0.1,0,0.1c0,0.3,0,0.7,0,1v5.1h7.5l-1.2,7.9h-6.3v19.1L17.7,44.4z"/>
</svg>
