<svg xmlns="http://www.w3.org/2000/svg" viewBox="0 0 638.77 831.71"><defs><style>.a{fill:#010101;}</style></defs><path class="a" d="M1605.33,1714.31v27.92h214.06v-27.92l-26.23-1.69c-33.84-2.54-57.53-28.77-57.53-67.69V1150h-32.15L1301.6,1638.17V1247.28c0-39.76,24.54-66.83,56.69-67.68l44.83-1.7V1150h-213.2v27.91l27.92,1.7c32.15,1.69,55.84,30.46,55.84,67.68V1662.7l-7.62,9.31c-30.46,36.38-53.3,38.91-85.45,42.3v27.92h242l285.12-349.42v252.12c0,40.61-24.54,66.84-56.69,67.69Z" transform="translate(-1180.61 -910.52)"/><circle class="a" cx="115.91" cy="77.11" r="77.11"/></svg>