<svg xmlns="http://www.w3.org/2000/svg" viewBox="0 0 1504.02 1624.1"><defs><style>.a{fill:#010101;}</style></defs><path class="a" d="M906.77,951.69C875,923.19,871.25,874,899.9,842.07a75.36,75.36,0,0,1,64.71-25l-3,28.67c-14.74-1.69-28.83,2.81-39.55,14.76-18.37,20.47-15,50.36,5.1,68.43s50.23,18.47,68.6-2c10.87-12.12,13.83-26.61,10.55-41.08l28.18-6a75.3,75.3,0,0,1-17.87,67C988,978.76,938.87,980.49,906.77,951.69Z" transform="translate(-747.99 -580.76)"/><path class="a" d="M1016.16,833c-24.68-35.36-17.15-83.79,18.21-108.46,35.19-24.55,83.6-15.13,108.27,20.23,24.55,35.19,16.66,83.87-18.52,108.42C1088.75,877.84,1040.7,868.17,1016.16,833Zm101.22-70.61c-15.61-22.37-44.33-29.7-66.52-14.22-22.37,15.61-25.23,45-9.62,67.34s44,29.65,66.39,14C1129.82,814.05,1133,784.75,1117.38,762.37Z" transform="translate(-747.99 -580.76)"/><path class="a" d="M1225.25,628.27,1253.68,617l55.83,140.92-25.57,10.13L1197.81,700l35,88.36-28.43,11.26-55.83-140.92,26.39-10.45,84.91,67.4Z" transform="translate(-747.99 -580.76)"/><path class="a" d="M1410,583.93l4.85,26.62L1373.68,618l22.3,122.5L1365.9,746l-22.31-122.5L1302.46,631l-4.84-26.62Z" transform="translate(-747.99 -580.76)"/><path class="a" d="M1535.8,731.93l-12.91-36.09-56.75.92-11.51,36.49-32.55.53,54.07-152.48,33-.54,58.78,150.65ZM1474.73,670l38.71-.62-20.29-57.1Z" transform="translate(-747.99 -580.76)"/><path class="a" d="M1580.93,658c8.49-41.82,49-70,91-61.42a75.28,75.28,0,0,1,54.32,43.14l-26.22,12c-6-13.56-17-23.43-32.75-26.63-27-5.47-51,12.53-56.43,39s9.51,52.67,36.46,58.14c16,3.24,30-1.55,40.76-11.7l19.48,21.24a75.31,75.31,0,0,1-66.84,18.53C1598.71,741.71,1572.34,700.21,1580.93,658Z" transform="translate(-747.99 -580.76)"/><path class="a" d="M1868.63,667.1,1858.08,692l-38.49-16.28-48.51,114.68-28.17-11.91,48.51-114.69-38.5-16.28,10.55-24.92Z" transform="translate(-747.99 -580.76)"/><path class="a" d="M1892,793.5,1952.17,716l24.15,18.76-59,75.91c-12.69,16.33-7.4,31,3.72,39.67,11.29,8.78,26.84,10.28,39.53-6l59-75.91,24.15,18.77-60.22,77.47c-21.33,27.45-55.79,27.69-80.28,8.65C1878.9,854.4,1870.63,821,1892,793.5Z" transform="translate(-747.99 -580.76)"/><path class="a" d="M1997.92,891.88l20,23.15c-8,7.21-8,21.1,1.25,31.76,8.92,10.32,20.47,12.26,28.63,5.22,6.33-5.46,6.8-14,1.32-26.42L2041,908.15c-15-30.9-3.77-48.47,6.55-57.39,20.49-17.68,49.88-12.24,68.85,9.74,18.69,21.65,19.91,49.66-1.9,68.49l-20-23.15c8.16-7,9.6-18.17,1-28.16-7.76-9-19.65-10.64-27.31-4-2.83,2.44-7.94,8.31-1.09,23.31l7.4,16c9.79,21.78,14.05,44.55-5.44,61.37-22.81,19.69-52.12,11-70.81-10.66C1977.14,939.18,1977.77,909.28,1997.92,891.88Z" transform="translate(-747.99 -580.76)"/><path class="a" d="M2093.22,1833.94c31.77,28.5,35.52,77.68,6.87,109.61a75.32,75.32,0,0,1-64.7,25l3-28.67c14.73,1.7,28.82-2.8,39.55-14.76,18.36-20.46,15-50.35-5.11-68.42s-50.23-18.47-68.59,2c-10.88,12.11-13.83,26.6-10.55,41.07l-28.19,6a75.36,75.36,0,0,1,17.87-67C2012,1806.86,2061.13,1805.14,2093.22,1833.94Z" transform="translate(-747.99 -580.76)"/><path class="a" d="M1983.84,1952.64c24.67,35.37,17.15,83.8-18.22,108.47-35.18,24.55-83.59,15.13-108.26-20.23-24.55-35.19-16.66-83.87,18.52-108.42C1911.25,1907.79,1959.3,1917.46,1983.84,1952.64Zm-101.22,70.61c15.61,22.38,44.32,29.71,66.52,14.22,22.37-15.6,25.23-45,9.62-67.33s-44-29.65-66.39-14C1870.18,1971.58,1867,2000.88,1882.62,2023.25Z" transform="translate(-747.99 -580.76)"/><path class="a" d="M1774.75,2157.35l-28.43,11.27-55.83-140.92,25.57-10.13,86.13,68.1-35-88.36,28.43-11.26L1851.44,2127l-26.38,10.45-84.91-67.4Z" transform="translate(-747.99 -580.76)"/><path class="a" d="M1590,2201.7l-4.84-26.62,41.12-7.49L1604,2045.08l30.09-5.48,22.31,122.51,41.12-7.49,4.85,26.63Z" transform="translate(-747.99 -580.76)"/><path class="a" d="M1464.23,2053.7l12.91,36.09,56.75-.92,11.51-36.49,32.55-.53-54.07,152.48-33,.53-58.78-150.64Zm61.07,61.93-38.71.63,20.29,57.1Z" transform="translate(-747.99 -580.76)"/><path class="a" d="M1419.07,2127.67c-8.5,41.83-49,70-91,61.43A75.37,75.37,0,0,1,1273.7,2146l26.23-12c6,13.57,17,23.44,32.75,26.63,27,5.48,51-12.53,56.42-39s-9.5-52.67-36.45-58.14c-16-3.24-30,1.55-40.77,11.7l-19.48-21.25a75.35,75.35,0,0,1,66.85-18.52C1401.29,2043.92,1427.65,2085.42,1419.07,2127.67Z" transform="translate(-747.99 -580.76)"/><path class="a" d="M1131.37,2118.53l10.54-24.92,38.5,16.28,48.51-114.68,28.16,11.91-48.51,114.68,38.5,16.29L1236.53,2163Z" transform="translate(-747.99 -580.76)"/><path class="a" d="M1108,1992.13l-60.22,77.47-24.14-18.77,59-75.91c12.69-16.33,7.4-31-3.72-39.67-11.29-8.77-26.85-10.27-39.54,6.06l-59,75.9-24.14-18.76,60.21-77.47c21.33-27.45,55.8-27.69,80.29-8.66C1121.1,1931.22,1129.37,1964.68,1108,1992.13Z" transform="translate(-747.99 -580.76)"/><path class="a" d="M1002.07,1893.74l-20-23.15c8-7.21,7.94-21.09-1.26-31.75-8.91-10.33-20.47-12.27-28.63-5.22-6.32,5.46-6.8,14-1.31,26.42l8.08,17.44c15,30.89,3.77,48.47-6.56,57.38-20.48,17.68-49.87,12.25-68.85-9.73-18.69-21.65-19.91-49.66,1.91-68.49l20,23.15c-8.16,7-9.6,18.16-1,28.16,7.76,9,19.65,10.64,27.31,4,2.83-2.44,7.94-8.31,1.09-23.32l-7.41-16c-9.79-21.78-14-44.55,5.44-61.37,22.82-19.7,52.13-11,70.82,10.66C1022.86,1846.45,1022.22,1876.35,1002.07,1893.74Z" transform="translate(-747.99 -580.76)"/><circle class="a" cx="25.05" cy="812.04" r="25.05"/><circle class="a" cx="1478.97" cy="812.04" r="25.05"/></svg>