<svg id="Layer_1" data-name="Layer 1" xmlns="http://www.w3.org/2000/svg" viewBox="0 0 196.12 255.33"><defs><style>.cls-1{fill:#505050;}</style></defs><path class="cls-1" d="M130.38,246.75v8.58h65.7v-8.58l-8.05-.51c-10.38-.78-17.66-8.83-17.66-20.78V73.51H160.5L37.19,223.36v-120c0-12.2,7.53-20.51,17.4-20.77l13.76-.52V73.5H2.86v8.57l8.57.52c9.87.52,17.14,9.35,17.14,20.77V230.89l-2.38,2.86c-9.35,11.17-16.36,12-26.23,13v8.58H74.24l87.52-107.27v77.4c0,12.46-7.53,20.52-17.4,20.78Z" transform="translate(0.04)"/><circle class="cls-1" cx="35.62" cy="23.67" r="23.67"/></svg>