<svg id="Layer_1" data-name="Layer 1" xmlns="http://www.w3.org/2000/svg" viewBox="0 0 45 45"><defs><style>.cls-1{fill:#a4031f;}.cls-2{fill:#fff;}</style></defs><circle class="cls-1" cx="22.5" cy="22.5" r="22.5"/><path class="cls-2" d="M22.5,13.8a27.6,27.6,0,0,0-3.6.1,7.79,7.79,0,0,0-2.1.4,4.57,4.57,0,0,0-2.6,2.5,5.22,5.22,0,0,0-.4,2.1c0,.9-.1,1.2-.1,3.6a27.6,27.6,0,0,0,.1,3.6,7.79,7.79,0,0,0,.4,2.1,4,4,0,0,0,2.6,2.5,5.22,5.22,0,0,0,2.1.4h7.2a7.79,7.79,0,0,0,2.1-.4,4.13,4.13,0,0,0,2.5-2.5,5.22,5.22,0,0,0,.4-2.1V18.9a7.79,7.79,0,0,0-.4-2.1,4.13,4.13,0,0,0-2.5-2.5,5.22,5.22,0,0,0-2.1-.4A27.6,27.6,0,0,0,22.5,13.8Zm0,1.5a26.62,26.62,0,0,1,3.5.1,4.15,4.15,0,0,1,1.6.3,2.86,2.86,0,0,1,1.7,1.7,4.53,4.53,0,0,1,.3,1.6v3.5a26.62,26.62,0,0,1-.1,3.5,4.15,4.15,0,0,1-.3,1.6,2.29,2.29,0,0,1-.7,1,3.59,3.59,0,0,1-1,.7,4.53,4.53,0,0,1-1.6.3H22.4a26.62,26.62,0,0,1-3.5-.1,4.15,4.15,0,0,1-1.6-.3,2.86,2.86,0,0,1-1.7-1.7,4.53,4.53,0,0,1-.3-1.6v-7a4.15,4.15,0,0,1,.3-1.6,2.86,2.86,0,0,1,1.7-1.7,4.53,4.53,0,0,1,1.6-.3Zm0,2.7A4.5,4.5,0,1,0,27,22.5,4.48,4.48,0,0,0,22.5,18Zm0,7.4a2.9,2.9,0,1,1,2.9-2.9h0A2.9,2.9,0,0,1,22.5,25.4Zm5.7-7.6a1.1,1.1,0,0,1-1,1.1,1.18,1.18,0,0,1-1.1-1,1.18,1.18,0,0,1,1-1.1h0a.92.92,0,0,1,1,.9Z"/></svg>