<svg id="Layer_1" data-name="Layer 1" xmlns="http://www.w3.org/2000/svg" viewBox="0 0 45 45"><defs><style>.cls-1{fill:#a4031f;}.cls-2{fill:#fff;}</style></defs><circle class="cls-1" cx="22.5" cy="22.5" r="22.5"/><path class="cls-2" d="M33.24,15.84a8.88,8.88,0,0,1-2.53.69,4.44,4.44,0,0,0,1.94-2.44,8.51,8.51,0,0,1-2.8,1.07,4.41,4.41,0,0,0-7.51,4,12.55,12.55,0,0,1-9.09-4.6,4.4,4.4,0,0,0,1.37,5.88,4.38,4.38,0,0,1-2-.55,4.42,4.42,0,0,0,3.54,4.38,4.36,4.36,0,0,1-2,.07,4.4,4.4,0,0,0,4.12,3.06,8.84,8.84,0,0,1-6.52,1.83A12.52,12.52,0,0,0,31,18.12,8.83,8.83,0,0,0,33.24,15.84Z"/></svg>