<svg id="Layer_1" data-name="Layer 1" xmlns="http://www.w3.org/2000/svg" viewBox="0 0 196.08 255.31"><defs><style>.cls-1{fill:#fff;}</style></defs><path class="cls-1" d="M992.19,659v8.58h65.7V659l-8.05-.51c-10.38-.78-17.66-8.83-17.66-20.78V485.76h-9.87L899,635.61v-120c0-12.2,7.53-20.51,17.4-20.77l13.76-.52v-8.57H864.67v8.57l8.57.52c9.87.52,17.14,9.35,17.14,20.77V643.14L888,646c-9.35,11.17-16.36,12-26.23,13v8.58h74.28l87.52-107.27v77.4c0,12.46-7.53,20.52-17.4,20.78Z" transform="translate(-861.81 -412.25)"/><circle class="cls-1" cx="35.58" cy="23.67" r="23.67"/></svg>