<svg id="Layer_1" data-name="Layer 1" xmlns="http://www.w3.org/2000/svg" viewBox="0 0 45 45"><defs><style>.cls-1{fill:#4ca343;}.cls-2{fill:#d99689;}.cls-3{fill:#4d4d4d;}.cls-4{fill:#fff;}</style></defs><circle class="cls-1" cx="22.5" cy="22.5" r="22.5"/><path class="cls-2" d="M20.6,31.24V23.6H17.82V20.44H20.6V18c0-2.74,1.63-4.25,4.13-4.25a16.76,16.76,0,0,1,2.45.21v2.69H25.8A1.57,1.57,0,0,0,24,18a1.8,1.8,0,0,0,0,.4v2.05h3l-.49,3.16H24v7.64Z"/><circle class="cls-3" cx="22.5" cy="22.5" r="22.5"/><path class="cls-4" d="M20.6,31.24V23.6H17.82V20.44H20.6V18c0-2.74,1.63-4.25,4.13-4.25a16.76,16.76,0,0,1,2.45.21v2.69H25.8A1.57,1.57,0,0,0,24,18a1.8,1.8,0,0,0,0,.4v2.05h3l-.49,3.16H24v7.64Z"/></svg>