<svg xmlns="http://www.w3.org/2000/svg" viewBox="0 0 2147.98 731.47"><defs><style>.a{fill:#fff;}</style></defs><path class="a" d="M799.33,1841.18v24.55H987.58v-24.55l-23.07-1.49c-29.76-2.23-50.6-25.3-50.6-59.53V1344.87H885.64L532.2,1774.21V1430.44c0-35,21.58-58.78,49.85-59.52l39.44-1.49v-24.56H434v24.56l24.56,1.49c28.27,1.49,49.1,26.78,49.1,59.52v365.35L501,1804c-26.79,32-46.88,34.23-75.15,37.21v24.55H638.6l250.76-307.3v221.73c0,35.72-21.58,58.79-49.85,59.53Z" transform="translate(-425.8 -1134.27)"/><circle class="a" cx="101.94" cy="67.82" r="67.82"/><path class="a" d="M1186.55,1544.78v-200h40.82v200Z" transform="translate(-425.8 -1134.27)"/><path class="a" d="M1236.78,1444.63c0-56.53,46.77-102.24,105.73-102.24,35.25,0,66,16.4,84.8,41.87l-31.41,22.68c-11.86-16-29.66-26.17-52-26.17-38,0-66.3,28.26-66.3,63.86s27.92,64.2,66.3,64.2c22.33,0,40.13-10.12,52-25.82l31.41,22.33c-18.84,25.47-49.55,41.88-84.8,41.88C1283.55,1547.22,1236.78,1501.51,1236.78,1444.63Z" transform="translate(-425.8 -1134.27)"/><path class="a" d="M1424.33,1444.63c0-56.53,46.41-102.24,106.08-102.24,59,0,106.07,45.71,106.07,102.24,0,56.88-47.1,102.93-106.07,102.93C1470.74,1547.56,1424.33,1501.51,1424.33,1444.63Zm171,0c0-35.6-27.22-63.86-65.26-63.86s-64.89,28.26-64.89,63.86c0,35.94,26.86,64.55,64.89,64.55S1595.31,1480.57,1595.31,1444.63Z" transform="translate(-425.8 -1134.27)"/><path class="a" d="M1760,1344.83h40.83v200h-37l-77.47-124.58v124.58h-40.82v-200h38L1760,1468Z" transform="translate(-425.8 -1134.27)"/><path class="a" d="M1815.5,1444.63c0-56.53,46.41-102.24,106.08-102.24,59,0,106.07,45.71,106.07,102.24,0,56.88-47.1,102.93-106.07,102.93C1861.91,1547.56,1815.5,1501.51,1815.5,1444.63Zm171,0c0-35.6-27.22-63.86-65.25-63.86s-64.91,28.26-64.91,63.86c0,35.94,26.87,64.55,64.91,64.55S1986.48,1480.57,1986.48,1444.63Z" transform="translate(-425.8 -1134.27)"/><path class="a" d="M2284.41,1544.78h-41.18l-15.35-123.53-52.34,100.84h-32.1l-53-100.49-15.7,123.18h-41.18l25.48-200h34.89L2159.14,1476l64.9-131.21h34.9Z" transform="translate(-425.8 -1134.27)"/><path class="a" d="M2315.27,1544.78v-200h40.82v200Z" transform="translate(-425.8 -1134.27)"/><path class="a" d="M2382.68,1444.63c0-56.53,46.76-102.24,105.73-102.24,35.24,0,66,16.4,84.79,41.87l-31.4,22.68c-11.87-16-29.66-26.17-52-26.17-38,0-66.3,28.26-66.3,63.86s27.91,64.2,66.3,64.2c22.33,0,40.12-10.12,52-25.82l31.4,22.33c-18.84,25.47-49.55,41.88-84.79,41.88C2429.44,1547.22,2382.68,1501.51,2382.68,1444.63Z" transform="translate(-425.8 -1134.27)"/><path class="a" d="M1333.57,1862.32l-15.93-46.92h-73.37l-15.64,46.92h-42.08l73.08-195.93h42.66l72.8,195.93ZM1255.93,1781h50l-25-74.22Z" transform="translate(-425.8 -1134.27)"/><path class="a" d="M1427.21,1764.5c0-55.74,43.8-101.53,100.1-101.53,29.58,0,55.46,12.23,72.52,31.28L1571.11,1719a59.75,59.75,0,0,0-43.8-19.34c-34.12,0-60.57,29.86-60.57,64.84s25.88,65.69,61.71,65.69c25.6,0,50.91-15.36,50.91-38.11H1523.9V1760h98.68c0,72.52-40.09,105.78-93.27,105.78C1470.15,1865.73,1427.21,1820,1427.21,1764.5Z" transform="translate(-425.8 -1134.27)"/><path class="a" d="M1744.24,1827.35h85.88v35H1704.7V1666.39h122.86v35h-83.32V1748h73.08v35.55h-73.08Z" transform="translate(-425.8 -1134.27)"/><path class="a" d="M2028.88,1666.39h39.53v195.93h-35.54l-71.1-122.85v122.85h-39.53V1666.39h36.69l70,121.42Z" transform="translate(-425.8 -1134.27)"/><path class="a" d="M2140.54,1764.21c0-55.17,44.08-101.24,99.53-101.24,33.27,0,62.28,15.93,79.91,40.67l-30.14,21.9c-11.09-15.65-27.59-25.31-48.35-25.31-35.54,0-61.42,29-61.42,64s25.59,64.27,61.14,64.27c21,0,37.54-9.67,48.63-25.31l30.14,21.9c-17.63,24.74-46.64,40.66-79.91,40.66C2184.62,1865.73,2140.54,1820,2140.54,1764.21Z" transform="translate(-425.8 -1134.27)"/><path class="a" d="M2526.85,1666.39h46.93l-76.22,107.49v88.44H2458v-89l-75.92-106.92h47.2l48.35,74.5Z" transform="translate(-425.8 -1134.27)"/></svg>