<svg xmlns="http://www.w3.org/2000/svg" viewBox="0 0 1539.57 734.26"><defs><style>.a{fill:#fff;}</style></defs><path class="a" d="M1103.75,1839.62v24.56H1292v-24.56l-23.07-1.48c-29.76-2.23-50.6-25.3-50.6-59.53V1343.32h-28.27L836.62,1772.66V1428.89c0-35,21.58-58.78,49.85-59.53l39.44-1.49v-24.55H738.4v24.55l24.56,1.49c28.27,1.49,49.1,26.79,49.1,59.53v365.35l-6.69,8.18c-26.79,32-46.88,34.23-75.15,37.2v24.56H943l250.76-307.3v221.73c0,35.72-21.58,58.79-49.85,59.53Z" transform="translate(-730.22 -1132.71)"/><circle class="a" cx="101.94" cy="67.82" r="67.82"/><path class="a" d="M1657.4,1481c0,25.73-16.7,54.2-61,54.2h-81.85v-188.6h76.37c34.49,0,56.66,20.8,56.66,48.72,0,13.14-4.92,32.85-26.55,39.15C1645.9,1438,1657.4,1459.39,1657.4,1481Zm-69.53-96.9h-30.39v36.13h30.12c10.12,0,17-6.57,17-18.07C1604.57,1392.59,1599.64,1384.11,1587.87,1384.11Zm3.28,113.6c15.33,0,23-10.4,23-21.08,0-9.85-6.84-21.08-23-21.08h-33.67v42.16Z" transform="translate(-730.22 -1132.71)"/><path class="a" d="M1685.7,1440.77c0-53.38,42.43-97.45,96.35-97.45,53.11,0,96.08,44.07,96.08,97.45s-43,97.73-96.08,97.73C1728.13,1538.5,1685.7,1494.15,1685.7,1440.77Zm149.18,0c0-31.48-21.62-56.94-53.1-56.94-31.75,0-52.83,25.46-52.83,56.94S1750,1498,1781.78,1498C1813.26,1498,1834.88,1472.25,1834.88,1440.77Z" transform="translate(-730.22 -1132.71)"/><path class="a" d="M1906.43,1440.77c0-53.38,42.43-97.45,96.36-97.45,53.1,0,96.08,44.07,96.08,97.45s-43,97.73-96.08,97.73C1948.86,1538.5,1906.43,1494.15,1906.43,1440.77Zm149.19,0c0-31.48-21.63-56.94-53.11-56.94-31.75,0-52.83,25.46-52.83,56.94s21.08,57.21,52.83,57.21C2034,1498,2055.62,1472.25,2055.62,1440.77Z" transform="translate(-730.22 -1132.71)"/><path class="a" d="M2269.78,1346.61v37.5H2220v151.1h-43v-151.1h-49.82v-37.5Z" transform="translate(-730.22 -1132.71)"/><path class="a" d="M1491.56,1769c0-53.11,42.7-97.18,95.81-97.18a96,96,0,0,1,79.38,41.88l-33.4,23.27c-9.85-15.33-24.36-24.63-44.07-24.63-31.75,0-54.47,25.45-54.47,56.66s21.9,57.48,54.2,57.48c20,0,34.49-9.3,44.34-24.63l33.4,23.27a96,96,0,0,1-79.38,41.88C1534.26,1867,1491.56,1822.63,1491.56,1769Z" transform="translate(-730.22 -1132.71)"/><path class="a" d="M1811.28,1863.69l-14.23-43.79H1730.8l-14,43.79h-46l69.81-188.6h46.81l69.52,188.6Zm-68.71-81H1785l-21.35-66.52Z" transform="translate(-730.22 -1132.71)"/><path class="a" d="M2094.59,1863.69h-44.07l-12.31-107.3-41.07,85.68H1964.3l-41.06-85.41-12.6,107h-44.07l23.27-188.6h35.86l55,118,54.2-118h36.68Z" transform="translate(-730.22 -1132.71)"/><path class="a" d="M2205.73,1675.09c43.8,0,63.51,31.2,63.51,62.41,0,31.48-19.71,62.14-63.51,62.14H2171v64h-43v-188.6Zm-1.92,87.05c16.15,0,22.18-12.6,22.18-24.64s-6-24.91-21.9-24.91H2171v49.55Z" transform="translate(-730.22 -1132.71)"/><path class="a" d="M1104.34,1839.78v24.56h188.25v-24.56l-23.06-1.49c-29.77-2.23-50.6-25.29-50.6-59.53V1343.48h-28.28L837.21,1772.81V1429c0-35,21.58-58.78,49.86-59.52L926.5,1368v-24.55H739V1368l24.56,1.49c28.27,1.49,49.11,26.79,49.11,59.52v365.35l-6.7,8.19c-26.79,32-46.88,34.22-75.15,37.2v24.56H943.62L1194.37,1557v221.73c0,35.72-21.57,58.79-49.85,59.53Z" transform="translate(-730.22 -1132.71)"/><circle class="a" cx="102.53" cy="67.97" r="67.82"/></svg>