<svg xmlns="http://www.w3.org/2000/svg" viewBox="0 0 1539.57 734.26"><defs><style>.a{fill:#11468c;}</style></defs><path class="a" d="M799.52,1839.62v24.56H987.77v-24.56l-23.06-1.48c-29.77-2.23-50.6-25.3-50.6-59.53V1343.32H885.83L532.39,1772.66V1428.89c0-35,21.58-58.78,49.86-59.53l39.43-1.49v-24.55H434.17v24.55l24.56,1.49c28.27,1.49,49.11,26.79,49.11,59.53v365.35l-6.7,8.18c-26.79,32-46.88,34.23-75.15,37.2v24.56H638.8l250.75-307.3v221.73c0,35.72-21.57,58.79-49.85,59.53Z" transform="translate(-425.99 -1132.71)"/><circle class="a" cx="101.94" cy="67.82" r="67.82"/><path class="a" d="M1353.17,1481c0,25.73-16.7,54.2-61,54.2h-81.85v-188.6h76.37c34.49,0,56.67,20.8,56.67,48.72,0,13.14-4.93,32.85-26.55,39.15C1341.68,1438,1353.17,1459.39,1353.17,1481Zm-69.53-96.9h-30.38v36.13h30.11c10.13,0,17-6.57,17-18.07C1300.34,1392.59,1295.41,1384.11,1283.64,1384.11Zm3.29,113.6c15.33,0,23-10.4,23-21.08,0-9.85-6.84-21.08-23-21.08h-33.67v42.16Z" transform="translate(-425.99 -1132.71)"/><path class="a" d="M1381.47,1440.77c0-53.38,42.43-97.45,96.36-97.45,53.1,0,96.08,44.07,96.08,97.45s-43,97.73-96.08,97.73C1423.9,1538.5,1381.47,1494.15,1381.47,1440.77Zm149.19,0c0-31.48-21.63-56.94-53.11-56.94-31.75,0-52.83,25.46-52.83,56.94s21.08,57.21,52.83,57.21C1509,1498,1530.66,1472.25,1530.66,1440.77Z" transform="translate(-425.99 -1132.71)"/><path class="a" d="M1602.21,1440.77c0-53.38,42.43-97.45,96.35-97.45,53.11,0,96.08,44.07,96.08,97.45s-43,97.73-96.08,97.73C1644.64,1538.5,1602.21,1494.15,1602.21,1440.77Zm149.18,0c0-31.48-21.62-56.94-53.1-56.94-31.75,0-52.83,25.46-52.83,56.94s21.08,57.21,52.83,57.21C1729.77,1498,1751.39,1472.25,1751.39,1440.77Z" transform="translate(-425.99 -1132.71)"/><path class="a" d="M1965.56,1346.61v37.5h-49.82v151.1h-43v-151.1h-49.82v-37.5Z" transform="translate(-425.99 -1132.71)"/><path class="a" d="M1187.33,1769c0-53.11,42.71-97.18,95.81-97.18a96,96,0,0,1,79.38,41.88L1329.13,1737c-9.86-15.33-24.36-24.63-44.07-24.63-31.76,0-54.48,25.45-54.48,56.66s21.9,57.48,54.2,57.48c20,0,34.49-9.3,44.35-24.63l33.39,23.27a96,96,0,0,1-79.38,41.88C1230,1867,1187.33,1822.63,1187.33,1769Z" transform="translate(-425.99 -1132.71)"/><path class="a" d="M1507.05,1863.69l-14.23-43.79h-66.24l-14,43.79h-46l69.8-188.6h46.81l69.53,188.6Zm-68.7-81h42.43l-21.36-66.52Z" transform="translate(-425.99 -1132.71)"/><path class="a" d="M1790.37,1863.69H1746.3L1734,1756.39l-41.06,85.68h-32.85L1619,1756.66l-12.59,107h-44.07l23.26-188.6h35.86l55,118,54.2-118h36.69Z" transform="translate(-425.99 -1132.71)"/><path class="a" d="M1901.5,1675.09c43.8,0,63.51,31.2,63.51,62.41,0,31.48-19.71,62.14-63.51,62.14h-34.76v64h-43v-188.6Zm-1.91,87.05c16.15,0,22.17-12.6,22.17-24.64s-6-24.91-21.9-24.91h-33.12v49.55Z" transform="translate(-425.99 -1132.71)"/><path class="a" d="M800.11,1839.78v24.56H988.37v-24.56l-23.07-1.49c-29.76-2.23-50.6-25.29-50.6-59.53V1343.48H886.43L533,1772.81V1429c0-35,21.58-58.78,49.85-59.52l39.43-1.49v-24.55H434.77V1368l24.55,1.49c28.28,1.49,49.11,26.79,49.11,59.52v365.35l-6.7,8.19c-26.78,32-46.87,34.22-75.15,37.2v24.56H639.39L890.15,1557v221.73c0,35.72-21.58,58.79-49.86,59.53Z" transform="translate(-425.99 -1132.71)"/><circle class="a" cx="102.53" cy="67.97" r="67.82"/></svg>