<svg xmlns="http://www.w3.org/2000/svg" viewBox="0 0 2147.41 731.47"><defs><style>.a{fill:#fff;}</style></defs><path class="a" d="M799.83,1841.18v24.55H988.08v-24.55L965,1839.69c-29.76-2.23-50.59-25.3-50.59-59.53V1344.87H886.14L532.7,1774.21V1430.44c0-35,21.58-58.78,49.86-59.52l39.43-1.49v-24.56H434.48v24.56l24.56,1.49c28.27,1.49,49.11,26.78,49.11,59.52v365.35l-6.7,8.18c-26.79,32-46.88,34.23-75.15,37.21v24.55H639.11l250.75-307.3v221.73c0,35.72-21.58,58.79-49.85,59.53Z" transform="translate(-426.3 -1134.27)"/><circle class="a" cx="101.94" cy="67.82" r="67.82"/><path class="a" d="M1187.05,1544.78v-200h40.82v200Z" transform="translate(-426.3 -1134.27)"/><path class="a" d="M1237.29,1444.63c0-56.53,46.76-102.24,105.72-102.24,35.25,0,66,16.4,84.8,41.87l-31.41,22.68c-11.86-16-29.66-26.17-52-26.17-38,0-66.3,28.26-66.3,63.86s27.92,64.2,66.3,64.2c22.33,0,40.13-10.12,52-25.82l31.41,22.33c-18.84,25.47-49.55,41.88-84.8,41.88C1284.05,1547.22,1237.29,1501.51,1237.29,1444.63Z" transform="translate(-426.3 -1134.27)"/><path class="a" d="M1424.83,1444.63c0-56.53,46.41-102.24,106.08-102.24,59,0,106.08,45.71,106.08,102.24,0,56.88-47.11,102.93-106.08,102.93C1471.24,1547.56,1424.83,1501.51,1424.83,1444.63Zm171,0c0-35.6-27.22-63.86-65.25-63.86s-64.9,28.26-64.9,63.86c0,35.94,26.86,64.55,64.9,64.55S1595.81,1480.57,1595.81,1444.63Z" transform="translate(-426.3 -1134.27)"/><path class="a" d="M1760.5,1344.83h40.83v200h-37l-77.47-124.58v124.58h-40.82v-200h38L1760.5,1468Z" transform="translate(-426.3 -1134.27)"/><path class="a" d="M1816,1444.63c0-56.53,46.41-102.24,106.08-102.24,59,0,106.07,45.71,106.07,102.24,0,56.88-47.1,102.93-106.07,102.93C1862.41,1547.56,1816,1501.51,1816,1444.63Zm171,0c0-35.6-27.22-63.86-65.25-63.86s-64.91,28.26-64.91,63.86c0,35.94,26.88,64.55,64.91,64.55S1987,1480.57,1987,1444.63Z" transform="translate(-426.3 -1134.27)"/><path class="a" d="M2284.91,1544.78h-41.18l-15.35-123.53L2176,1522.09h-32.1l-53-100.49-15.7,123.18H2034l25.47-200h34.89L2159.64,1476l64.9-131.21h34.9Z" transform="translate(-426.3 -1134.27)"/><path class="a" d="M2315.77,1544.78v-200h40.83v200Z" transform="translate(-426.3 -1134.27)"/><path class="a" d="M2383.18,1444.63c0-56.53,46.76-102.24,105.73-102.24,35.25,0,66,16.4,84.79,41.87l-31.4,22.68c-11.87-16-29.66-26.17-52-26.17-38,0-66.3,28.26-66.3,63.86s27.91,64.2,66.3,64.2c22.33,0,40.12-10.12,52-25.82l31.4,22.33c-18.84,25.47-49.54,41.88-84.79,41.88C2429.94,1547.22,2383.18,1501.51,2383.18,1444.63Z" transform="translate(-426.3 -1134.27)"/><path class="a" d="M1188.66,1766.1c0-54.14,43.26-99.35,97.68-99.35,32.65,0,61.12,15.63,78.42,39.91l-29.58,21.49c-10.89-15.35-27.07-24.84-47.45-24.84-34.88,0-60.28,28.47-60.28,62.79s25.12,63.07,60,63.07c20.65,0,36.83-9.48,47.72-24.83l29.58,21.49c-17.3,24.28-45.77,39.9-78.42,39.9C1231.92,1865.73,1188.66,1820.8,1188.66,1766.1Z" transform="translate(-426.3 -1134.27)"/><path class="a" d="M1648.37,1670.1h38.79v192.28h-38.79v-78.14h-71.73v78.14h-38.79V1670.1h38.79v79.26h71.73Z" transform="translate(-426.3 -1134.27)"/><path class="a" d="M2004.53,1862.38l-15.63-46h-72l-15.35,46h-41.3L1932,1670.1h41.86l71.45,192.28Zm-76.19-79.81h49.12l-24.55-72.84Z" transform="translate(-426.3 -1134.27)"/><path class="a" d="M2218.37,1862.38V1670.1h38.79v192.28Z" transform="translate(-426.3 -1134.27)"/><path class="a" d="M2534.91,1670.1h38.79v192.28h-34.88l-69.77-120.55v120.55h-38.79V1670.1h36l68.65,119.17Z" transform="translate(-426.3 -1134.27)"/></svg>