<?xml version="1.0" encoding="utf-8"?>
<!-- Generator: Adobe Illustrator 26.0.3, SVG Export Plug-In . SVG Version: 6.00 Build 0)  -->
<svg version="1.1" id="Layer_1" xmlns="http://www.w3.org/2000/svg" xmlns:xlink="http://www.w3.org/1999/xlink" x="0px" y="0px"
	 viewBox="0 0 2147.41 731.47" style="enable-background:new 0 0 2147.41 731.47;" xml:space="preserve">
<style type="text/css">
	.st0{fill:#DA621B;}
</style>
<g>
	<g>
		<g>
			<path class="st0" d="M373.53,706.91v24.56h188.25v-24.56l-23.07-1.48c-29.76-2.24-50.6-25.3-50.6-59.53V210.61h-28.28
				L106.4,639.95V296.18c0-34.97,21.58-58.78,49.85-59.53l39.43-1.49v-24.55H8.18v24.55l24.56,1.49
				c28.28,1.49,49.11,26.79,49.11,59.53v365.35l-6.7,8.18c-26.79,32-46.88,34.23-75.15,37.2v24.56h212.81l250.76-307.31v221.73
				c0,35.72-21.58,58.79-49.85,59.53L373.53,706.91z"/>
		</g>
	</g>
	<g>
		<circle class="st0" cx="101.94" cy="67.82" r="67.82"/>
	</g>
</g>
<path class="st0" d="M760.75,410.51V210.56h40.82v199.95H760.75z"/>
<path class="st0" d="M810.99,310.37c0-56.53,46.76-102.24,105.73-102.24c35.25,0,65.95,16.41,84.8,41.88l-31.4,22.68
	c-11.87-16.05-29.66-26.17-51.99-26.17c-38.03,0-66.3,28.26-66.3,63.86c0,35.59,27.91,64.2,66.3,64.2
	c22.33,0,40.12-10.12,51.99-25.82l31.4,22.33c-18.84,25.47-49.55,41.88-84.8,41.88C857.75,412.95,810.99,367.24,810.99,310.37z"/>
<path class="st0" d="M998.53,310.37c0-56.53,46.41-102.24,106.08-102.24c58.97,0,106.08,45.71,106.08,102.24
	c0,56.88-47.11,102.93-106.08,102.93C1044.94,413.3,998.53,367.24,998.53,310.37z M1169.52,310.37c0-35.6-27.22-63.86-65.26-63.86
	c-38.03,0-64.9,28.26-64.9,63.86c0,35.94,26.86,64.55,64.9,64.55C1142.29,374.91,1169.52,346.3,1169.52,310.37z"/>
<path class="st0" d="M1334.2,210.56h40.83v199.95h-36.99l-77.47-124.57v124.57h-40.82V210.56h38.03l76.41,123.17V210.56z"/>
<path class="st0" d="M1389.71,310.37c0-56.53,46.41-102.24,106.08-102.24c58.97,0,106.07,45.71,106.07,102.24
	c0,56.88-47.11,102.93-106.07,102.93C1436.12,413.3,1389.71,367.24,1389.71,310.37z M1560.68,310.37c0-35.6-27.22-63.86-65.25-63.86
	s-64.91,28.26-64.91,63.86c0,35.94,26.87,64.55,64.91,64.55S1560.68,346.3,1560.68,310.37z"/>
<path class="st0" d="M1858.61,410.51h-41.17l-15.35-123.53l-52.34,100.84h-32.1l-53.04-100.49l-15.7,123.17h-41.17l25.47-199.95
	h34.9l65.25,131.2l64.9-131.2h34.9L1858.61,410.51z"/>
<path class="st0" d="M1889.48,410.51V210.56h40.82v199.95H1889.48z"/>
<path class="st0" d="M1956.88,310.37c0-56.53,46.76-102.24,105.73-102.24c35.25,0,65.95,16.41,84.8,41.88l-31.4,22.68
	c-11.87-16.05-29.66-26.17-51.99-26.17c-38.03,0-66.3,28.26-66.3,63.86c0,35.59,27.91,64.2,66.3,64.2
	c22.33,0,40.12-10.12,51.99-25.82l31.4,22.33c-18.84,25.47-49.55,41.88-84.8,41.88C2003.65,412.95,1956.88,367.24,1956.88,310.37z"
	/>
<path class="st0" d="M904.17,672.86c0,26.64-18.23,55.24-60.85,55.24h-82.44V534.89h76.56c34.49,0,56.64,20.75,56.64,49.92
	c0,14.3-5.61,33.65-26.64,40.1C892.11,629.12,904.17,650.99,904.17,672.86z M835.19,569.39h-35.33v42.34h35.33
	c12.34,0,19.91-8.13,19.91-21.31C855.1,578.64,848.93,569.39,835.19,569.39z M837.71,693.61c18.23,0,27.2-11.78,27.2-24.68
	c0-12.06-8.13-24.68-26.64-24.68h-38.42v49.35H837.71z"/>
<path class="st0" d="M1025.93,728.1l-45.99-69.26h-13.18v69.26h-38.98V534.89h77.12c44.31,0,63.37,31.41,63.37,63.09
	c0,27.48-19.35,54.4-46.55,59.17l49.92,70.95H1025.93z M966.76,569.39v58.05h31.13c21.87,0,31.13-13.18,31.13-28.6
	c0-15.42-9.81-29.44-28.04-29.44H966.76z"/>
<path class="st0" d="M1242.88,728.1l-15.7-46.27h-72.35l-15.42,46.27h-41.5l72.07-193.21h42.06l71.79,193.21H1242.88z
	 M1166.32,647.9h49.35L1191,574.71L1166.32,647.9z"/>
<path class="st0" d="M1410.13,534.89h38.98V728.1h-35.05l-70.1-121.14V728.1h-38.98V534.89h36.17l68.98,119.74V534.89z"/>
<path class="st0" d="M1563.94,534.89c55.52,0,87.77,42.06,87.77,97.03c0,54.68-32.25,96.18-87.77,96.18h-75.71V534.89H1563.94z
	 M1563.94,693.61c32.25,0,48.79-28.6,48.79-61.69s-16.54-62.53-48.79-62.53h-36.74v124.23H1563.94z"/>
<path class="st0" d="M1686.88,728.1V534.89h38.98V728.1H1686.88z"/>
<path class="st0" d="M1882.13,534.89h38.98V728.1h-35.05l-70.1-121.14V728.1h-38.98V534.89h36.17l68.98,119.74V534.89z"/>
<path class="st0" d="M1954.76,631.64c0-54.96,43.19-100.11,98.71-100.11c29.16,0,54.68,12.06,71.51,30.85l-28.32,24.4
	c-10.94-11.78-26.36-19.07-43.19-19.07c-33.65,0-59.73,29.44-59.73,63.94s25.52,64.78,60.85,64.78c25.24,0,50.2-15.14,50.2-37.58
	h-54.68v-31.69h97.31c0,71.51-39.54,104.32-91.98,104.32C1997.1,731.47,1954.76,686.32,1954.76,631.64z"/>
</svg>
