<svg xmlns="http://www.w3.org/2000/svg" viewBox="0 0 2147.41 731.67"><path d="M797,1886.74v24.56H985.24v-24.56l-23.06-1.48c-29.77-2.24-50.6-25.3-50.6-59.53V1390.44H883.3L529.86,1819.78V1476c0-35,21.58-58.78,49.86-59.53l39.43-1.49v-24.55H431.64V1415l24.56,1.49c28.27,1.49,49.11,26.79,49.11,59.53v365.35l-6.7,8.18c-26.79,32-46.88,34.23-75.15,37.2v24.56H636.27L887,1604v221.73c0,35.72-21.58,58.78-49.85,59.53Z" transform="translate(-423.46 -1179.83)"/><circle cx="101.94" cy="67.82" r="67.82"/><path d="M1184.21,1590.35V1390.4H1225v199.95Z" transform="translate(-423.46 -1179.83)"/><path d="M1234.45,1490.2c0-56.53,46.76-102.24,105.72-102.24,35.25,0,66,16.4,84.8,41.87l-31.41,22.68c-11.86-16-29.65-26.17-52-26.17-38,0-66.3,28.26-66.3,63.86s27.92,64.2,66.3,64.2c22.34,0,40.13-10.12,52-25.82l31.41,22.33c-18.84,25.47-49.55,41.88-84.8,41.88C1281.21,1592.79,1234.45,1547.08,1234.45,1490.2Z" transform="translate(-423.46 -1179.83)"/><path d="M1422,1490.2c0-56.53,46.41-102.24,106.08-102.24,59,0,106.08,45.71,106.08,102.24,0,56.88-47.11,102.93-106.08,102.93C1468.4,1593.13,1422,1547.08,1422,1490.2Zm171,0c0-35.6-27.22-63.86-65.25-63.86s-64.9,28.26-64.9,63.86c0,35.94,26.86,64.55,64.9,64.55S1593,1526.14,1593,1490.2Z" transform="translate(-423.46 -1179.83)"/><path d="M1757.66,1390.4h40.83v199.95h-37L1684,1465.77v124.58h-40.82V1390.4h38l76.41,123.17Z" transform="translate(-423.46 -1179.83)"/><path d="M1813.16,1490.2c0-56.53,46.41-102.24,106.08-102.24,59,0,106.07,45.71,106.07,102.24,0,56.88-47.1,102.93-106.07,102.93C1859.57,1593.13,1813.16,1547.08,1813.16,1490.2Zm171,0c0-35.6-27.22-63.86-65.25-63.86S1854,1454.6,1854,1490.2c0,35.94,26.88,64.55,64.91,64.55S1984.14,1526.14,1984.14,1490.2Z" transform="translate(-423.46 -1179.83)"/><path d="M2282.07,1590.35h-41.18l-15.35-123.53-52.34,100.84h-32.1l-53-100.49-15.7,123.18h-41.17l25.47-199.95h34.89l65.25,131.2,64.9-131.2h34.9Z" transform="translate(-423.46 -1179.83)"/><path d="M2312.93,1590.35V1390.4h40.83v199.95Z" transform="translate(-423.46 -1179.83)"/><path d="M2380.34,1490.2c0-56.53,46.76-102.24,105.73-102.24,35.25,0,65.95,16.4,84.79,41.87l-31.4,22.68c-11.87-16-29.66-26.17-52-26.17-38,0-66.3,28.26-66.3,63.86s27.91,64.2,66.3,64.2c22.33,0,40.12-10.12,52-25.82l31.4,22.33c-18.84,25.47-49.54,41.88-84.79,41.88C2427.1,1592.79,2380.34,1547.08,2380.34,1490.2Z" transform="translate(-423.46 -1179.83)"/><path d="M1390.6,1714.93h42.34l-65.62,193.21H1336.2l-28-104.88-27.48,104.88h-31.12l-65.34-193.21h42.06l39.26,125.91,27.2-98.71h31.69l26.64,98.71Z" transform="translate(-423.46 -1179.83)"/><path d="M1505.42,1811.67c0-55,43.19-100.11,98.15-100.11,54.68,0,98.43,45.15,98.43,100.11,0,54.68-43.75,99.83-98.43,99.83C1548.61,1911.5,1505.42,1866.35,1505.42,1811.67Zm157.32,0c0-34.77-24.68-63.37-59.17-63.37-34.77,0-59.17,28.6-59.17,63.37s24.4,63.1,59.17,63.1C1638.06,1874.77,1662.74,1846.44,1662.74,1811.67Z" transform="translate(-423.46 -1179.83)"/><path d="M1925.07,1908.14l-46-69.27H1865.9v69.27h-39V1714.93H1904c44.3,0,63.37,31.4,63.37,63.09,0,27.48-19.35,54.4-46.55,59.17l49.92,71Zm-59.17-158.72v58H1897c21.87,0,31.12-13.17,31.12-28.6s-9.81-29.44-28-29.44Z" transform="translate(-423.46 -1179.83)"/><path d="M2176.88,1873.64h73.19v34.5H2137.9V1714.93h39Z" transform="translate(-423.46 -1179.83)"/><path d="M2483.09,1714.93c55.53,0,87.77,42.06,87.77,97,0,54.68-32.24,96.19-87.77,96.19h-75.71V1714.93Zm0,158.71c32.25,0,48.8-28.6,48.8-61.69s-16.55-62.53-48.8-62.53h-36.73v124.22Z" transform="translate(-423.46 -1179.83)"/></svg>