<svg xmlns="http://www.w3.org/2000/svg" viewBox="0 0 2147.41 734.26"><defs><style>.a{fill:#fff;}</style></defs><path class="a" d="M799.61,1839.78v24.56H987.87v-24.56l-23.07-1.49c-29.76-2.23-50.6-25.29-50.6-59.53V1343.48H885.93L532.49,1772.81V1429c0-35,21.58-58.78,49.85-59.52l39.43-1.49v-24.55H434.27V1368l24.55,1.49c28.28,1.49,49.11,26.79,49.11,59.52v365.35l-6.7,8.19c-26.78,32-46.87,34.22-75.15,37.2v24.56H638.89L889.65,1557v221.73c0,35.72-21.58,58.79-49.86,59.53Z" transform="translate(-426.08 -1132.87)"/><circle class="a" cx="101.94" cy="67.82" r="67.82"/><path class="a" d="M1186.83,1543.38v-200h40.82v200Z" transform="translate(-426.08 -1132.87)"/><path class="a" d="M1237.07,1443.23c0-56.53,46.76-102.24,105.73-102.24,35.25,0,66,16.41,84.79,41.88l-31.4,22.68c-11.87-16.06-29.66-26.17-52-26.17-38,0-66.3,28.26-66.3,63.85s27.91,64.21,66.3,64.21c22.33,0,40.12-10.12,52-25.83l31.4,22.34c-18.84,25.47-49.54,41.87-84.79,41.87C1283.83,1545.82,1237.07,1500.11,1237.07,1443.23Z" transform="translate(-426.08 -1132.87)"/><path class="a" d="M1424.61,1443.23c0-56.53,46.41-102.24,106.08-102.24,59,0,106.08,45.71,106.08,102.24,0,56.88-47.1,102.94-106.08,102.94C1471,1546.17,1424.61,1500.11,1424.61,1443.23Zm171,0c0-35.59-27.22-63.85-65.26-63.85s-64.9,28.26-64.9,63.85c0,35.94,26.87,64.55,64.9,64.55S1595.6,1479.17,1595.6,1443.23Z" transform="translate(-426.08 -1132.87)"/><path class="a" d="M1760.28,1343.43h40.83v200h-37l-77.47-124.58v124.58h-40.82v-200h38l76.41,123.18Z" transform="translate(-426.08 -1132.87)"/><path class="a" d="M1815.79,1443.23c0-56.53,46.41-102.24,106.08-102.24,59,0,106.07,45.71,106.07,102.24,0,56.88-47.11,102.94-106.07,102.94C1862.2,1546.17,1815.79,1500.11,1815.79,1443.23Zm171,0c0-35.59-27.22-63.85-65.25-63.85s-64.91,28.26-64.91,63.85c0,35.94,26.87,64.55,64.91,64.55S1986.77,1479.17,1986.77,1443.23Z" transform="translate(-426.08 -1132.87)"/><path class="a" d="M2284.69,1543.38h-41.17l-15.35-123.53-52.34,100.85h-32.1l-53-100.49L2075,1543.38h-41.17l25.47-200h34.9l65.25,131.21,64.9-131.21h34.89Z" transform="translate(-426.08 -1132.87)"/><path class="a" d="M2315.56,1543.38v-200h40.82v200Z" transform="translate(-426.08 -1132.87)"/><path class="a" d="M2383,1443.23c0-56.53,46.76-102.24,105.72-102.24,35.25,0,66,16.41,84.8,41.88l-31.4,22.68c-11.87-16.06-29.66-26.17-52-26.17-38,0-66.29,28.26-66.29,63.85s27.91,64.21,66.29,64.21c22.34,0,40.13-10.12,52-25.83l31.4,22.34c-18.84,25.47-49.55,41.87-84.8,41.87C2429.73,1545.82,2383,1500.11,2383,1443.23Z" transform="translate(-426.08 -1132.87)"/><path class="a" d="M1301.29,1664.4h40.82v199.94h-37l-77.46-124.57v124.57h-40.83V1664.4h38l76.42,123.18Z" transform="translate(-426.08 -1132.87)"/><path class="a" d="M1409.77,1828.4h92.47v35.94h-133V1664.4h130.16v35.94h-89.68v47.11h78.51v37h-78.51Z" transform="translate(-426.08 -1132.87)"/><path class="a" d="M1680.61,1664.4v35.94h-58.27v164h-40.82v-164h-57.93V1664.4Z" transform="translate(-426.08 -1132.87)"/><path class="a" d="M1926.15,1664.4h44l-70.49,199.94h-32.45l-31.41-107.82-30.35,107.82h-32.81l-70.48-199.94h44l43.27,129.11,30.36-100.85h33.15l29.66,101.54Z" transform="translate(-426.08 -1132.87)"/><path class="a" d="M1973.23,1764.19c0-56.52,46.41-102.23,106.08-102.23,59,0,106.08,45.71,106.08,102.23,0,56.88-47.11,102.94-106.08,102.94C2019.64,1867.13,1973.23,1821.07,1973.23,1764.19Zm171,0c0-35.58-27.22-63.85-65.25-63.85s-64.9,28.27-64.9,63.85c0,36,26.86,64.56,64.9,64.56S2144.21,1800.14,2144.21,1764.19Z" transform="translate(-426.08 -1132.87)"/><path class="a" d="M2319.75,1864.34l-50.25-71.53h-15.35v71.53h-40.83V1664.4h83c47.46,0,68,32.8,68,65.25,0,28.62-16,54.44-51.29,61.41l54.44,73.28Zm-65.6-164V1760h34.55c24.42,0,34.54-14,34.54-29.31s-10.82-30.36-31.06-30.36Z" transform="translate(-426.08 -1132.87)"/><path class="a" d="M2573.49,1864.34H2520.8L2451.36,1790v74.32h-40.47V1664.4h40.47V1744L2510,1664.4h48.86l-75.38,100.84Z" transform="translate(-426.08 -1132.87)"/></svg>