<svg id="Capa_1" data-name="Capa 1" xmlns="http://www.w3.org/2000/svg" viewBox="0 0 579.15 579.12"><defs><style>.cls-1{fill:#fff;}</style></defs><path class="cls-1" d="M434.92,38.85Q368.38,0,289.57,0T144.22,38.85A288.18,288.18,0,0,0,38.84,144.23Q0,210.79,0,289.58q0,87.85,47.88,159.49T173.44,555q-1.51-40.35,4.9-66.73l37.33-157.61q-9.43-18.46-9.43-46,0-32,16.22-53.54t39.59-21.5q18.84,0,29,12.45t10.18,31.29q0,11.7-4.33,28.47t-11.31,38.84q-7,22.05-10,35.25-5.29,23,8.67,39.4t36.95,16.4q40.35,0,66.18-44.86t25.82-109q0-49.38-31.86-80.31T292.6,146.67q-63.74,0-103.13,40.91t-39.4,97.84q0,33.94,19.23,56.94,6.4,7.54,4.15,16.21-.76,2.26-3,11.31c-1.5,6-2.51,9.93-3,11.68q-3,12.07-14.34,7.54Q124.05,377,109,347.25t-15.08-69a164.7,164.7,0,0,1,8.1-50.53,172.4,172.4,0,0,1,25.27-48.83,198.3,198.3,0,0,1,41.1-41.66q23.94-18.11,58.26-29t73.9-10.93q53.53,0,96.15,23.75t65,61.46q22.43,37.71,22.44,80.7,0,56.55-19.61,101.8t-55.43,71.08q-35.83,25.82-81.45,25.82a89.29,89.29,0,0,1-43-10.75q-20-10.74-27.53-25.45-17,66.74-20.36,79.56-7.17,26.78-29.41,61.83a285.44,285.44,0,0,0,82.19,12.06q78.81,0,145.35-38.83A288.23,288.23,0,0,0,540.31,434.91q38.84-66.54,38.84-145.35T540.31,144.2A288.42,288.42,0,0,0,434.92,38.85Z" transform="translate(0 -0.01)"/></svg>